<svg fill="none" height="63" viewBox="0 0 63 63" width="63" xmlns="http://www.w3.org/2000/svg"><g fill="#f8f4e4"><path d="m62.1473 31.9269c-.0611.8759-.0825 1.7574-.1894 2.6268-1.1335 9.2326-5.427 16.6308-12.9639 22.0481-5.63 4.0479-11.9844 5.9371-18.9056 5.6967-8.0036-.276-14.9036-3.2636-20.68958-8.8188-.05324-.0512-.05194-.2557 0-.3105 7.21648-7.2494 14.43978-14.4916 21.66988-21.7263.1709-.157.392-.2478.6237-.2558 10.1525-.0126 20.3047-.0163 30.457-.0109z"/><path d="m31.8262-.00463867c.8535.06502457 1.7088.10291997 2.5593.19507367 4.9805.541442 9.5674 2.190455 13.7608 4.947035.0284.02144.0556.04445.0815.06891l-2.6508 2.65309c-.577.57746-1.1502 1.15881-1.7341 1.72897-.0369.02395-.0791.03846-.1229.04229-.0437.00383-.0878-.00315-.1283-.02033-4.2217-2.43591-8.7659-3.55626-13.6327-3.36105-10.8888.44011-20.38133 8.17455-22.99221 18.78055-1.61608 6.5713-.71701 12.8142 2.61088 18.7064.03178.056.03349.1795-.00472.2153-1.44462 1.4595-2.89426 2.9153-4.3489 4.3674-.01416.0142-.03176.0258-.06483.0525-.13696-.2126-.27479-.4185-.40445-.6286-3.58895-5.8187-5.17325-12.1429-4.6606053-18.9691 1.0686453-14.1905 11.5997353-25.81615 25.6129353-28.284941 1.4169-.249332 2.8659-.312634 4.2995-.4620625l.2929-.03143517z"/><path d="m47.5767 18.8074c.0024-1.2958.4526-2.5508 1.2738-3.5514.8213-1.0005 1.9628-1.6846 3.2304-1.936 1.2675-.2513 2.5828-.0543 3.7218.5576 1.139.6117 2.0315 1.6005 2.5254 2.798.4941 1.1975.559 2.5297.1838 3.7698-.3751 1.2401-1.1671 2.3115-2.2412 3.0318-1.074.7204-2.3638 1.0452-3.6498.919-1.286-.126-2.4887-.6953-3.4033-1.6106-.5209-.5223-.934-1.1425-1.2155-1.8252-.2817-.6826-.4262-1.4141-.4254-2.153z"/></g></svg>